Normalized EMG Linear Envelopes
nRows=129
nColumns=4

endheader
time	 med_gas_r	  soleus_r	 tib_ant_r	
2.79133	  0.020913	  0.024087	  0.029532	
2.8629	  0.020450	  0.024594	  0.028737	
2.93448	  0.020045	  0.025489	  0.029327	
3.00605	  0.019905	  0.026325	  0.030309	
3.07762	  0.019927	  0.026692	  0.031137	
3.14919	  0.020304	  0.026676	  0.033374	
3.22077	  0.020481	  0.026485	  0.036007	
3.29234	  0.020577	  0.026414	  0.037537	
3.36391	  0.020775	  0.026411	  0.038591	
3.43548	  0.021128	  0.026502	  0.038939	
3.50706	  0.021128	  0.026878	  0.037597	
3.57863	  0.021165	  0.027328	  0.035426	
3.6502	  0.021524	  0.026848	  0.033608	
3.72177	  0.021438	  0.025505	  0.032828	
3.79335	  0.021065	  0.024503	  0.032737	
3.86492	  0.021321	  0.024483	  0.033478	
3.93649	  0.021997	  0.025192	  0.034055	
4.00806	  0.022282	  0.025964	  0.034385	
4.07964	  0.022323	  0.026392	  0.034929	
4.15121	  0.021894	  0.026306	  0.034937	
4.22278	  0.020916	  0.026446	  0.035349	
4.29435	  0.020142	  0.026920	  0.036133	
4.36593	  0.019923	  0.027770	  0.037197	
4.4375	  0.020201	  0.028324	  0.037194	
4.50907	  0.020498	  0.028437	  0.036839	
4.58065	  0.020736	  0.028731	  0.035697	
4.65222	  0.021365	  0.029078	  0.033811	
4.72379	  0.022638	  0.029215	  0.033470	
4.79536	  0.023392	  0.029114	  0.034557	
4.86694	  0.022327	  0.029707	  0.037534	
4.93851	  0.019866	  0.032023	  0.041878	
5.01008	  0.017823	  0.034004	  0.044582	
5.08165	  0.018196	  0.035414	  0.045469	
5.15323	  0.024696	  0.042219	  0.051213	
5.2248	  0.043892	  0.064322	  0.069143	
5.29637	  0.079930	  0.105961	  0.097967	
5.36794	  0.125140	  0.158928	  0.127884	
5.43952	  0.155629	  0.204847	  0.141669	
5.51109	  0.160495	  0.237873	  0.143126	
5.58266	  0.168400	  0.276598	  0.148616	
5.65423	  0.188933	  0.313684	  0.158957	
5.72581	  0.210565	  0.338070	  0.169201	
5.79738	  0.237740	  0.350547	  0.173387	
5.86895	  0.274057	  0.363712	  0.174814	
5.94052	  0.309965	  0.388400	  0.178680	
6.0121	  0.336202	  0.421168	  0.185672	
6.08367	  0.348045	  0.454965	  0.196713	
6.15524	  0.352288	  0.491025	  0.207357	
6.22681	  0.349007	  0.505481	  0.208117	
6.29839	  0.345237	  0.491612	  0.196345	
6.36996	  0.348764	  0.470585	  0.179786	
6.44153	  0.354492	  0.449560	  0.170158	
6.5131	  0.347960	  0.424401	  0.166044	
6.58468	  0.327664	  0.397346	  0.162896	
6.65625	  0.312071	  0.381629	  0.155386	
6.72782	  0.311930	  0.385774	  0.146458	
6.7994	  0.330122	  0.402586	  0.145412	
6.87097	  0.349455	  0.427753	  0.155007	
6.94254	  0.371603	  0.462055	  0.166003	
7.01411	  0.398951	  0.500105	  0.173903	
7.08569	  0.442454	  0.540336	  0.180188	
7.15726	  0.504998	  0.572407	  0.188988	
7.22883	  0.545907	  0.590760	  0.196431	
7.3004	  0.552633	  0.595160	  0.200874	
7.37198	  0.544364	  0.587932	  0.201645	
7.44355	  0.539253	  0.575812	  0.200256	
7.51512	  0.538113	  0.564377	  0.197129	
7.58669	  0.525893	  0.544183	  0.190885	
7.65827	  0.497809	  0.515696	  0.180515	
7.72984	  0.454945	  0.490569	  0.167783	
7.80141	  0.420131	  0.469530	  0.157200	
7.87298	  0.412502	  0.456077	  0.152458	
7.94456	  0.435694	  0.459600	  0.156948	
8.01613	  0.464636	  0.476690	  0.162921	
8.0877	  0.478962	  0.494764	  0.167621	
8.15927	  0.472350	  0.507297	  0.173227	
8.23085	  0.447058	  0.523625	  0.175769	
8.30242	  0.427554	  0.559082	  0.176343	
8.37399	  0.431324	  0.601439	  0.173899	
8.44556	  0.451074	  0.625407	  0.169347	
8.51714	  0.483867	  0.626175	  0.167423	
8.58871	  0.521832	  0.614772	  0.166907	
8.66028	  0.544909	  0.602920	  0.167887	
8.73185	  0.558621	  0.612947	  0.170550	
8.80343	  0.557444	  0.635717	  0.175566	
8.875	  0.543846	  0.640220	  0.181709	
8.94657	  0.545007	  0.650450	  0.184885	
9.01815	  0.562953	  0.675195	  0.179700	
9.08972	  0.572708	  0.666922	  0.171609	
9.16129	  0.553910	  0.602876	  0.163209	
9.23286	  0.514501	  0.520363	  0.154870	
9.30444	  0.460916	  0.451623	  0.144499	
9.37601	  0.394297	  0.397692	  0.131232	
9.44758	  0.349430	  0.367592	  0.122418	
9.51915	  0.346390	  0.366945	  0.123328	
9.59073	  0.379339	  0.385558	  0.131108	
9.6623	  0.427365	  0.421148	  0.145474	
9.73387	  0.480051	  0.481263	  0.160344	
9.80544	  0.529868	  0.556556	  0.173433	
9.87702	  0.563555	  0.607587	  0.183523	
9.94859	  0.589258	  0.626579	  0.193223	
10.0202	  0.620852	  0.640996	  0.205062	
10.0917	  0.645995	  0.657159	  0.218816	
10.1633	  0.671498	  0.668744	  0.228104	
10.2349	  0.670660	  0.654705	  0.225249	
10.3065	  0.639955	  0.617275	  0.214552	
10.378	  0.590430	  0.567634	  0.203115	
10.4496	  0.528665	  0.517780	  0.193221	
10.5212	  0.461895	  0.470283	  0.180576	
10.5927	  0.385546	  0.406319	  0.161354	
10.6643	  0.305685	  0.330281	  0.140052	
10.7359	  0.230159	  0.250238	  0.118320	
10.8075	  0.167016	  0.174977	  0.096291	
10.879	  0.117640	  0.110771	  0.077532	
10.9506	  0.079035	  0.065558	  0.065176	
11.0222	  0.050721	  0.045311	  0.057479	
11.0937	  0.035151	  0.042770	  0.052267	
11.1653	  0.029478	  0.046150	  0.045636	
11.2369	  0.028703	  0.048498	  0.039429	
11.3085	  0.028799	  0.049107	  0.034839	
11.38	  0.027569	  0.048100	  0.031187	
11.4516	  0.026235	  0.045658	  0.027152	
11.5232	  0.025131	  0.043308	  0.023316	
11.5948	  0.025088	  0.040306	  0.019530	
11.6663	  0.026649	  0.036430	  0.017222	
11.7379	  0.028576	  0.033148	  0.016707	
11.8095	  0.029446	  0.031505	  0.015643	
11.881	  0.027967	  0.029604	  0.014462	
11.9526	  0.025233	  0.026553	  0.017236	
